<?xml version="1.0" encoding="UTF-8"?>
<svg version="1.1" xmlns="http://www.w3.org/2000/svg" width="720" height="720">
<path d="M0 0 C0 14.52 0 29.04 0 44 C-4.26962343 45.21989241 -8.37423322 46.32217363 -12.69238281 47.24072266 C-47.48490528 54.79534013 -79.82003099 73.2758505 -105.44140625 97.75 C-108 100 -108 100 -110.21484375 101.0625 C-112.56250209 102.29540591 -112.88894981 103.63298003 -114 106 C-115.23031076 107.26972575 -116.50789696 108.494236 -117.8125 109.6875 C-128.28257832 119.93804441 -136.75559257 132.31867202 -144 145 C-144.38752441 145.67111816 -144.77504883 146.34223633 -145.17431641 147.03369141 C-148.21045492 152.30636113 -151.1407345 157.6294717 -154 163 C-154.5259375 163.98033203 -154.5259375 163.98033203 -155.0625 164.98046875 C-165.5808155 184.90774616 -172.6323893 207.77276114 -176 230 C-176.22171875 231.30066406 -176.4434375 232.60132813 -176.671875 233.94140625 C-183.35804574 279.43447338 -172.80591076 326.879037 -151 367 C-150.5359375 367.92683594 -150.071875 368.85367187 -149.59375 369.80859375 C-141.44743325 385.74600995 -129.71928657 400.50283539 -117 413 C-117.56847656 411.84886719 -118.13695312 410.69773437 -118.72265625 409.51171875 C-140.47395629 364.91587449 -147.26039946 317.70940682 -131 270 C-123.02001501 247.43748779 -113.63742995 225.44833032 -104.19345093 203.46968079 C-100.77835694 195.50969419 -97.44526232 187.51656548 -94.12741089 179.51565552 C-91.42717565 173.00673754 -88.71433871 166.50304698 -86 160 C-85.72007202 159.32910339 -85.44014404 158.65820679 -85.1517334 157.96697998 C-69.30137292 120.01148605 -69.30137292 120.01148605 -57 105 C-56.30261719 104.13761719 -55.60523438 103.27523437 -54.88671875 102.38671875 C-39.6945079 84.52823323 -14.63976697 69.96833619 9 68 C40.28225563 66.3752704 69.1238784 71.51897524 93 93 C123.79656075 121.16858757 136.70474332 164.01909522 152.34454346 201.63247681 C154.3297349 206.40271838 156.33054154 211.16624267 158.33720398 215.92749023 C159.936021 219.72116646 161.53202969 223.51602182 163.12796021 227.31091309 C163.90031703 229.14578536 164.67376345 230.98019949 165.44845581 232.81408691 C180.51482315 268.49215947 180.51482315 268.49215947 184.375 283.625 C184.60832031 284.48738281 184.84164063 285.34976562 185.08203125 286.23828125 C185.76434878 288.8172102 186.39456221 291.40201349 187 294 C187.19577637 294.8146875 187.39155273 295.629375 187.59326172 296.46875 C189.44365584 305.15784427 189.39905139 313.90922137 189.375 322.75 C189.3737915 323.5701358 189.37258301 324.39027161 189.37133789 325.23526001 C189.25151334 355.25971284 181.87989494 383.33260926 168 410 C169.44653109 410.11736991 169.44653109 410.11736991 171.40625 407.61328125 C184.10453057 394.21601276 193.24715912 379.17260803 202 363 C202.40750488 362.25073242 202.81500977 361.50146484 203.23486328 360.72949219 C228.63234045 313.14309665 235.09511471 255.43192521 220.03369141 203.6796875 C211.73393886 176.45060674 200.28174982 151.67215843 183 129 C182.30729004 128.08299316 182.30729004 128.08299316 181.60058594 127.14746094 C167.91126235 109.18655285 152.17655222 93.84083345 133.44262695 81.21069336 C132.96656006 80.81116455 132.49049316 80.41163574 132 80 C132 79.34 132 78.68 132 78 C132.680625 77.75507813 133.36125 77.51015625 134.0625 77.2578125 C148.55452306 71.6691334 160.97130589 62.68062711 173 53 C191.56436169 66.20925735 208.62945808 83.59237027 222 102 C222.47066895 102.63164062 222.94133789 103.26328125 223.42626953 103.9140625 C247.59063823 136.35586055 263.21813529 173.81128631 271.3125 213.375 C271.45969482 214.08527344 271.60688965 214.79554688 271.75854492 215.52734375 C274.58519311 230.32052185 275.38006559 245.16368939 275.3125 260.1875 C275.30976578 261.46151169 275.30976578 261.46151169 275.30697632 262.76126099 C275.25799873 276.37527535 274.52742426 289.59536304 272 303 C271.82307617 303.97388672 271.64615234 304.94777344 271.46386719 305.95117188 C265.89756027 336.11882493 256.57230628 367.43756318 240.34765625 393.71484375 C238.87209086 396.03451228 238.87209086 396.03451228 238 399 C237.34 399 236.68 399 236 399 C235.896875 399.57621094 235.79375 400.15242188 235.6875 400.74609375 C234.88705041 403.37029497 233.71075441 404.92816938 232 407.0625 C230.0569079 409.49603602 228.9987139 411.00385831 228 414 C226.86389032 415.13610968 225.72306856 416.26779373 224.5625 417.37890625 C222.69772327 419.3136121 221.08755436 421.37899263 219.4375 423.5 C214.30066474 429.99319063 208.70786008 436.01048493 203 442 C202.47744629 442.55123535 201.95489258 443.1024707 201.41650391 443.67041016 C194.0493462 451.39627692 186.33671204 458.27584886 177.78271484 464.66162109 C176.01244753 465.99065497 174.26536106 467.34611651 172.51953125 468.70703125 C137.31939745 495.77883435 93.78469636 511.41149288 50 517 C49.25419678 517.09571289 48.50839355 517.19142578 47.73999023 517.29003906 C-12.44029066 524.17766018 -76.3565651 504.37149413 -124.08984375 467.62109375 C-129.40076492 463.33809281 -134.50600407 458.83506715 -139.54296875 454.234375 C-141.15464463 452.76874924 -142.78192582 451.32006451 -144.42578125 449.890625 C-194.67266258 405.97469044 -221.23087974 339.45366961 -225.82128906 274.00585938 C-229.99741596 203.76477417 -203.28495745 135.15250432 -157 83 C-156.54270508 82.47954102 -156.08541016 81.95908203 -155.61425781 81.42285156 C-145.08434529 69.46772409 -133.48635046 58.97262789 -120.79150391 49.35888672 C-119.5994066 48.45466028 -118.41153861 47.54483022 -117.22802734 46.62939453 C-101.45871641 34.43555734 -84.22526063 25.00436367 -66 17 C-65.29117676 16.68579102 -64.58235352 16.37158203 -63.85205078 16.04785156 C-44.72330971 7.70545902 -21.03328064 0 0 0 Z M-6 113 C-7.19689453 113.63035156 -7.19689453 113.63035156 -8.41796875 114.2734375 C-22.06916818 121.9350409 -31.92119607 133.32822998 -38.79296875 147.2734375 C-39.13519974 147.963806 -39.47743073 148.6541745 -39.83003235 149.36546326 C-43.78591968 157.45478022 -47.24229755 165.74636973 -50.6875 174.0625 C-51.38896328 175.74419586 -52.090959 177.42566972 -52.79345703 179.10693359 C-54.20552152 182.4880355 -55.61482191 185.87026829 -57.02197266 189.25341797 C-58.76714938 193.44611018 -60.52601815 197.63285083 -62.29296875 201.81640625 C-65.55075594 209.53513193 -68.78165821 217.26477401 -72 225 C-72.3520752 225.84530273 -72.70415039 226.69060547 -73.06689453 227.56152344 C-75.44922537 233.28363761 -77.82145117 239.00982101 -80.18389893 244.74017334 C-80.96137892 246.62321673 -81.7411817 248.50530323 -82.52362061 250.3862915 C-100.86708382 294.51574222 -108.96313929 336.47863699 -90.13964844 382.08447266 C-83.89730995 396.31773451 -74.67608011 407.93484991 -64 419 C-63.26007813 419.80308594 -62.52015625 420.60617187 -61.7578125 421.43359375 C-42.27652568 442.02096096 -11.17558919 455.21849167 16.9609375 456.28125 C51.02744385 457.02600071 83.59569491 446.95553484 108.703125 423.23828125 C109.84007812 422.13033203 109.84007812 422.13033203 111 421 C111.84046875 420.20980469 112.6809375 419.41960937 113.546875 418.60546875 C138.86147256 394.24975746 150.06567056 360.18321631 151.06689453 325.69580078 C151.36811813 295.95157314 139.25618585 268.78179552 127.75 241.9375 C126.47853784 238.95356665 125.2091459 235.96875885 123.94003296 232.98382568 C123.10585341 231.02186059 122.27108424 229.06014607 121.43569946 227.09869385 C118.18734879 219.4652136 115.01756447 211.80255246 111.875 204.125 C107.4786367 193.44218213 102.95933194 182.81439448 98.36968994 172.21331787 C97.63791204 170.52171224 96.90812997 168.82924146 96.18060303 167.13580322 C88.03476274 146.96772958 88.03476274 146.96772958 75.5 129.5 C75.02844482 129.0162793 74.55688965 128.53255859 74.07104492 128.03417969 C72.73035338 126.67317809 71.365977 125.33562195 70 124 C69.05060547 123.00226563 69.05060547 123.00226563 68.08203125 121.984375 C56.65306967 110.78247888 40.08018614 106.04304421 24.5 105.625 C13.78944184 105.86994 3.47624256 107.90673617 -6 113 Z " fill="#84CC16" transform="translate(334,117)"/>
<path d="M0 0 C9.46521152 7.67905719 20.47549631 16.80488158 22.375 29.5078125 C22.66714533 35.47853272 21.47125429 40.11074968 18 45 C12.96959079 50.03040921 7.55064134 52.15720111 0.5625 52.4375 C-5.55227297 52.23674138 -10.22792749 50.7520816 -14.625 46.38671875 C-15.16125 45.80535156 -15.6975 45.22398437 -16.25 44.625 C-23.62308655 36.779496 -34.64900659 33.11092477 -45.1875 32.625 C-56.12607282 32.88220019 -66.6391188 36.9674831 -75 44 C-85.03850389 55.0186945 -89.50099233 68.33623862 -89.18359375 83.0859375 C-88.36772406 96.035699 -82.48291649 106.2569926 -73 115 C-62.79591687 122.71805651 -51.69310387 125.45835662 -39 124 C-31.57921498 122.07609277 -25.23792303 119.3966084 -19 115 C-20.62808594 114.87044922 -20.62808594 114.87044922 -22.2890625 114.73828125 C-23.7344864 114.59749321 -25.17979346 114.45550205 -26.625 114.3125 C-27.33785156 114.25900391 -28.05070312 114.20550781 -28.78515625 114.15039062 C-34.35991622 113.56222788 -37.02739821 111.96063612 -41 108 C-44.51647551 102.95971844 -44.82655402 97.95118895 -44 92 C-42.30190265 86.6683395 -39.76928256 83.05723241 -35 80 C-31.95863142 78.98621047 -29.83114195 78.84962229 -26.64575195 78.80712891 C-25.55063797 78.79106598 -24.45552399 78.77500305 -23.32722473 78.75845337 C-18.31394108 78.713906 -13.30078897 78.67292973 -8.28735352 78.64990234 C-5.64631327 78.6333563 -3.00531756 78.60608461 -0.36450195 78.56787109 C3.44864069 78.512992 7.26073388 78.49120882 11.07421875 78.4765625 C12.24844894 78.45389313 13.42267914 78.43122375 14.63249207 78.40786743 C21.66711929 78.42591532 26.63935608 79.21411018 32 84 C35.98908037 89.27588049 36.55540029 94.5060889 36 101 C33.88989528 115.17990374 26.63950109 128.53739161 17 139 C15.93458984 140.16789062 15.93458984 140.16789062 14.84765625 141.359375 C-0.29371931 157.21923411 -21.18604425 166.60989498 -43 168 C-64.92348817 168.46062097 -86.60174275 161.86624013 -103 147 C-104.24136719 145.98679687 -104.24136719 145.98679687 -105.5078125 144.953125 C-122.00855999 131.12681059 -132.3186234 109.65849955 -134.52734375 88.40234375 C-136.69705114 62.25562212 -130.94549344 37.69914203 -114.4375 17 C-112.97614991 15.31768976 -111.498168 13.64960736 -110 12 C-109.38898438 11.29617188 -108.77796875 10.59234375 -108.1484375 9.8671875 C-80.9629502 -19.63195829 -31.80927355 -23.26140709 0 0 Z M-105.3984375 23.90234375 C-110.18789483 30.17536469 -114.1370462 35.91427415 -114 44 C-113.13353917 47.00155751 -113.13353917 47.00155751 -111 49 C-108.00886008 49.95461912 -106.04719081 50.32077979 -103.0234375 49.39453125 C-100.09499058 47.37627729 -99.12795918 44.91707215 -97.5625 41.75 C-91.44640742 29.92609014 -82.16077897 21.29730558 -69.45703125 16.76171875 C-66.03484422 15.70078636 -62.59789622 14.7050743 -59.12890625 13.80859375 C-56.7453601 12.90328356 -55.60083382 11.96533137 -54 10 C-52.78802406 6.71035102 -52.78408314 5.47501708 -54.25 2.25 C-55.87288121 -0.26579384 -55.87288121 -0.26579384 -59 -1 C-77.3303036 -2.9924243 -94.37818771 10.76683275 -105.3984375 23.90234375 Z " fill="#84CC16" transform="translate(406,356)"/>
<path d="M0 0 C-0.55399766 5.04840119 -2.2557886 9.10108455 -4.5625 13.5625 C-5.09822632 14.60978271 -5.09822632 14.60978271 -5.64477539 15.67822266 C-10.75092634 25.52315944 -16.18127713 34.62823899 -23.8515625 42.73046875 C-25.80988211 44.79916638 -27.62277303 46.93113993 -29.4375 49.125 C-45.93886342 67.9297574 -71.28050583 78.18992251 -95.83544922 79.89794922 C-112.36476311 80.6772469 -130.40184857 78.00437966 -145 70 C-137.93762343 55.06534129 -119.58703548 44.96853317 -104.56591797 39.46289062 C-96.61668387 36.7275962 -88.71342315 35.0344685 -80.3684082 34.02416992 C-75.70523928 33.43402934 -72.08785812 32.50730428 -68 30 C-66.47153339 26.94306678 -66.76757555 24.37015453 -67 21 C-68.76015131 17.8149643 -69.49890916 17.16703028 -73 16 C-101.0807675 15.81354072 -130.133484 26.79558204 -150.37597656 46.31298828 C-154.2148334 50.30073644 -157.52113457 54.70930015 -160.79296875 59.1640625 C-163 62 -163 62 -166 64 C-168.6875 63.125 -168.6875 63.125 -171 62 C-171.04636675 52.69873619 -171.08189126 43.39751225 -171.10362434 34.09615803 C-171.1140558 29.77703579 -171.12820337 25.4579927 -171.15087891 21.13891602 C-171.17263001 16.96976634 -171.18457343 12.80069275 -171.18975449 8.63149071 C-171.19344617 7.04190054 -171.2006551 5.45231446 -171.21146011 3.86275673 C-171.22600526 1.63408069 -171.22797669 -0.59428208 -171.22705078 -2.82299805 C-171.231492 -4.09096725 -171.23593323 -5.35893646 -171.24050903 -6.66532898 C-170.91388449 -11.19399637 -169.95417614 -13.93016615 -166.9375 -17.3125 C-162.83762671 -19.66774636 -159.61401132 -19.98589985 -155 -19 C-151.77197629 -17.60261355 -149.8672373 -15.98651875 -148 -13 C-146.85490362 -8.69055246 -146.3229034 -4.44156921 -146 0 C-145.58492188 -0.4125 -145.16984375 -0.825 -144.7421875 -1.25 C-104.12670122 -39.31639718 -41.86636181 -29.23999872 0 0 Z " fill="#84CC16" transform="translate(526,92)"/>
</svg>
