<svg xmlns="http://www.w3.org/2000/svg" width="512" height="512" viewBox="0 0 512 512" version="1.1">
	<path d="M 266 28.687 C 258.140 29.635, 249.238 31.236, 247.500 32.015 C 242.160 34.406, 237.596 36, 236.089 36 C 234.568 36, 232.455 36.969, 224.850 41.151 C 223.392 41.953, 220.933 44.114, 219.385 45.954 C 217.837 47.795, 214.304 50.825, 211.535 52.688 C 198.680 61.338, 192.740 66.707, 185.192 76.500 C 182.648 79.800, 180.215 82.650, 179.784 82.833 C 179.353 83.017, 179 83.601, 179 84.131 C 179 84.662, 177.762 86.185, 176.250 87.516 C 174.738 88.848, 174.018 89.951, 174.650 89.968 C 175.283 89.986, 174.270 91.530, 172.400 93.400 C 170.530 95.270, 169 97.718, 169 98.841 C 169 99.964, 168.526 101.175, 167.947 101.533 C 167.368 101.890, 167.068 102.704, 167.280 103.341 C 167.702 104.605, 163.479 113.586, 162.048 114.470 C 159.519 116.033, 143.061 148.453, 142.836 152.317 C 142.603 156.311, 140.927 159.649, 137.207 163.535 C 133.717 167.180, 132.117 170.075, 132.700 171.694 C 132.936 172.350, 133.775 172.640, 134.565 172.337 C 135.354 172.034, 136 172.284, 136 172.893 C 136 173.502, 135.621 174, 135.157 174 C 134.694 174, 133.457 175.688, 132.407 177.750 C 131.358 179.813, 130.183 181.739, 129.796 182.031 C 128.819 182.767, 129.231 187, 130.280 187 C 130.750 187, 130.850 185.988, 130.502 184.750 C 130.033 183.083, 130.125 182.872, 130.858 183.936 C 131.684 185.135, 132.111 185.153, 133.447 184.044 C 134.814 182.910, 134.954 182.955, 134.416 184.359 C 133.603 186.477, 134.243 186.427, 139 184 C 143.873 181.514, 145.438 181.443, 144.510 183.750 C 144.123 184.713, 143.711 186.067, 143.593 186.760 C 143.476 187.453, 142.844 188.556, 142.190 189.210 C 140.423 190.977, 140.742 192, 143.059 192 C 144.191 192, 144.864 192.412, 144.553 192.915 C 144.242 193.418, 144.543 194.014, 145.223 194.241 C 146.712 194.737, 143.624 200, 141.844 200 C 141.234 200, 140.007 200.819, 139.117 201.819 C 137.273 203.894, 134.098 205.412, 132.234 205.110 C 131.538 204.997, 131.048 205.264, 131.146 205.703 C 131.243 206.141, 130.800 207.767, 130.161 209.315 C 128.607 213.083, 128.695 216.502, 130.383 217.903 C 131.676 218.976, 132.424 218.222, 133.259 215 C 133.614 213.627, 135.618 212.282, 136.500 212.824 C 137.767 213.602, 141.965 213.082, 144.250 211.863 C 145.406 211.246, 146 211.292, 146 211.996 C 146 212.583, 145.325 213.322, 144.500 213.638 C 142.333 214.470, 142.657 216, 145 216 C 147.988 216, 147.445 217.557, 143.002 221.738 C 139.353 225.171, 137.568 228.003, 140 226.500 C 140.550 226.160, 141 226.405, 141 227.045 C 141 227.684, 142.591 226.811, 144.535 225.104 C 148.858 221.308, 149.230 221.265, 147.918 224.714 C 147.351 226.207, 146.857 230.565, 146.821 234.398 C 146.785 238.230, 146.413 242.559, 145.995 244.017 C 145.575 245.482, 145.678 247.460, 146.226 248.439 C 146.771 249.412, 147.154 254.627, 147.079 260.027 C 147.003 265.427, 147.347 270.097, 147.844 270.404 C 148.341 270.711, 149.256 268.383, 149.878 265.231 C 150.996 259.567, 154.260 252.839, 155.738 253.155 C 156.821 253.386, 160.293 251.817, 161.642 250.485 C 162.271 249.865, 164.016 246.915, 165.522 243.929 C 167.027 240.943, 169.740 236.250, 171.552 233.500 C 173.364 230.750, 174.993 227.877, 175.173 227.115 C 175.353 226.353, 176.512 224.600, 177.750 223.219 C 178.988 221.838, 180 219.920, 180 218.956 C 180 216.021, 194.711 200.070, 196.782 200.761 C 197.452 200.984, 198 200.668, 198 200.059 C 198 199.449, 199.125 198.523, 200.500 198 C 201.875 197.477, 203 196.588, 203 196.025 C 203 195.461, 203.927 195, 205.059 195 C 206.191 195, 206.860 194.582, 206.544 194.072 C 205.916 193.055, 207.898 192.238, 212.512 191.610 C 214.155 191.386, 217.304 190.299, 219.510 189.194 C 223.636 187.127, 228.750 187.225, 230.269 189.399 C 230.804 190.165, 231.412 190.044, 232.269 189 C 233.959 186.941, 237.022 186.778, 236.251 188.788 C 235.863 189.799, 236.062 190.079, 236.830 189.605 C 239.104 188.199, 240.176 190.082, 238.531 192.593 C 237.339 194.412, 237.269 195, 238.245 195 C 239.107 195, 239.517 196.413, 239.476 199.250 C 239.411 203.877, 238.174 209, 237.123 209 C 236.760 209, 236.404 211.250, 236.332 214 C 236.236 217.628, 236.576 219, 237.569 219 C 238.374 219, 238.700 219.617, 238.362 220.500 C 238.005 221.429, 238.366 222, 239.309 222 C 240.147 222, 241.432 223.355, 242.165 225.012 C 242.899 226.668, 244.308 228.280, 245.298 228.595 C 246.442 228.958, 246.989 229.947, 246.799 231.308 C 246.592 232.793, 247.114 233.568, 248.500 233.833 C 249.600 234.044, 251.305 235.067, 252.289 236.108 C 253.273 237.149, 254.510 238, 255.039 238 C 255.568 238, 256 238.675, 256 239.500 C 256 241.224, 257.571 241.503, 258.531 239.949 C 258.920 239.320, 260.194 240.022, 261.708 241.699 C 263.098 243.240, 263.931 243.938, 263.558 243.250 C 263.186 242.562, 263.284 242, 263.774 242 C 265.676 242, 265.932 243.417, 264.347 245.169 C 262.793 246.886, 262.815 247, 264.706 247 C 266.337 247, 266.646 247.526, 266.320 249.750 L 265.918 252.500 267.209 250 C 267.919 248.625, 269.175 247.381, 270 247.236 C 271.333 247, 271.333 247.112, 270 248.236 C 269.175 248.931, 268.455 250.063, 268.400 250.750 C 268.345 251.438, 268.233 252.948, 268.150 254.107 C 268.050 255.519, 267.516 256.028, 266.532 255.651 C 265.725 255.341, 264.785 255.540, 264.443 256.092 C 264.070 256.696, 263.359 256.740, 262.661 256.202 C 262.022 255.709, 257.315 253.854, 252.201 252.079 C 244.140 249.282, 241.959 248.916, 235.821 249.334 C 230.396 249.703, 228.250 250.306, 226.647 251.908 C 225.250 253.305, 225.005 254, 225.910 254 C 226.656 254, 227.993 254.832, 228.883 255.849 C 231.289 258.599, 237.004 259.369, 240.023 257.349 C 241.386 256.437, 241.938 256.301, 241.250 257.046 C 239.122 259.352, 239.839 261.515, 244.250 266.091 C 251.464 273.575, 251.198 273.494, 256.136 269.734 C 263.047 264.473, 262.891 264.496, 264.565 268.501 C 266.070 272.104, 265.742 276, 263.933 276 C 263.420 276, 263 276.477, 263 277.059 C 263 277.641, 263.445 277.843, 263.989 277.507 C 264.536 277.169, 264.734 277.531, 264.431 278.319 C 263.798 279.969, 266.479 283, 268.571 283 C 269.357 283, 270 283.502, 270 284.115 C 270 284.792, 270.997 284.577, 272.534 283.569 C 274.934 281.997, 275.209 282.019, 277.707 283.984 C 279.158 285.126, 280.605 285.696, 280.923 285.252 C 281.240 284.808, 283.445 283.587, 285.823 282.538 C 288.200 281.489, 290.681 279.926, 291.335 279.065 C 293.447 276.286, 296.584 274.992, 297.984 276.322 C 298.961 277.250, 299.072 276.996, 298.505 275.125 C 298.012 273.498, 298.134 272.965, 298.893 273.434 C 299.545 273.837, 300.006 273.375, 300.015 272.309 C 300.028 270.775, 300.178 270.728, 301 272 C 302.030 273.594, 302.327 272.844, 302.052 269.346 C 301.958 268.161, 302.366 266.892, 302.957 266.526 C 303.549 266.161, 303.774 265.443, 303.457 264.931 C 303.141 264.419, 303.321 264, 303.858 264 C 304.806 264, 304.658 260.752, 303.420 254.397 C 303.088 252.690, 301.058 249.427, 298.908 247.145 C 296.759 244.863, 295 242.547, 295 241.998 C 295 241.449, 294.325 241, 293.500 241 C 292.675 241, 291.999 240.662, 291.999 240.250 C 291.998 239.838, 290.986 238.304, 289.749 236.843 C 288.512 235.382, 286.825 233.204, 286 232.004 C 285.175 230.804, 282.787 229.128, 280.693 228.280 C 278.098 227.228, 277.064 226.275, 277.444 225.285 C 277.757 224.469, 277.511 223.996, 276.881 224.206 C 275.328 224.724, 269.702 219.291, 270.483 218.028 C 270.832 217.462, 270.529 216.993, 269.809 216.985 C 268.983 216.975, 268.880 216.698, 269.529 216.235 C 270.095 215.831, 270.496 214.526, 270.420 213.335 C 270.330 211.926, 270.739 211.346, 271.593 211.674 C 272.314 211.951, 273.453 211.838, 274.123 211.424 C 274.964 210.904, 274.650 210.414, 273.107 209.844 C 270.886 209.022, 271.031 206.986, 273.309 207.015 C 274.025 207.025, 273.901 207.418, 273 208 C 271.718 208.828, 271.754 208.972, 273.250 208.985 C 274.212 208.993, 275 208.578, 275 208.062 C 275 207.546, 275.788 207.156, 276.750 207.196 C 277.712 207.235, 279.288 206.934, 280.250 206.527 C 281.259 206.099, 282 206.219, 282 206.810 C 282 207.373, 281.438 208.039, 280.750 208.290 C 280.063 208.541, 280.737 208.691, 282.249 208.623 C 283.794 208.554, 284.999 207.923, 284.999 207.183 C 285 206.289, 285.693 206.085, 287.151 206.548 C 288.820 207.078, 289.171 206.889, 288.718 205.707 C 287.996 203.825, 290.694 203.070, 297.251 203.319 C 300.862 203.457, 302.019 203.140, 302.071 202 C 302.118 200.988, 302.386 201.127, 302.895 202.427 C 303.571 204.151, 303.718 204.177, 304.294 202.677 C 304.648 201.755, 305.428 201, 306.028 201 C 306.627 201, 306.840 201.450, 306.500 202 C 306.160 202.550, 306.359 203, 306.941 203 C 307.523 203, 308 202.611, 308 202.137 C 308 200.883, 320.051 198.497, 320.844 199.593 C 321.205 200.092, 323.179 200.500, 325.231 200.500 C 327.283 200.500, 329.758 201.123, 330.731 201.885 C 332.393 203.186, 332.394 203.233, 330.750 202.666 C 329.626 202.278, 329 202.567, 329 203.472 C 329 205.822, 330.952 206.322, 339.726 206.223 C 346.744 206.144, 348.443 206.443, 350.039 208.039 C 352.367 210.367, 356.381 211.482, 358.748 210.457 C 359.711 210.039, 360.950 209.584, 361.500 209.446 C 362.050 209.307, 363.288 208.877, 364.250 208.490 C 365.212 208.103, 366 208.172, 366.001 208.643 C 366.001 209.114, 367.214 209.570, 368.696 209.656 C 370.177 209.742, 371.865 210.457, 372.445 211.244 C 373.708 212.957, 377.279 213.169, 376.635 211.492 C 376.337 210.715, 377.686 210.260, 380.620 210.150 C 383.760 210.031, 385.224 210.421, 385.633 211.485 C 385.950 212.312, 386.624 212.733, 387.130 212.420 C 387.636 212.107, 387.965 212.222, 387.861 212.676 C 387.402 214.678, 389.289 218.740, 390.625 218.626 C 391.554 218.546, 392.775 220.485, 393.944 223.897 C 396.733 232.039, 395.825 246.675, 391.798 258.500 C 387.316 271.662, 384.092 276.385, 381.952 272.922 C 381.272 271.822, 380.630 271.999, 378.696 273.816 C 376.821 275.578, 375.535 275.956, 372.893 275.522 C 365.735 274.348, 364.001 273.807, 364.550 272.919 C 364.863 272.413, 364.454 272, 363.642 272 C 362.831 272, 362.017 272.444, 361.833 272.986 C 361.615 273.632, 359.306 273.618, 355.146 272.948 C 346.854 271.610, 339.939 271.501, 339.139 272.694 C 338.787 273.217, 337.648 273.961, 336.607 274.346 C 335.566 274.732, 335 275.334, 335.351 275.684 C 335.701 276.034, 335.069 276.964, 333.946 277.750 C 332.334 278.880, 332.151 279.477, 333.075 280.590 C 333.718 281.366, 334.879 282, 335.654 282 C 336.429 282, 337.322 282.675, 337.638 283.500 C 337.955 284.325, 338.841 285, 339.607 285 C 340.373 285, 341 285.445, 341 285.988 C 341 286.532, 340.212 286.885, 339.250 286.772 C 335.995 286.392, 328.521 289.138, 324.809 292.077 C 322.778 293.685, 320.641 295, 320.059 295 C 319.476 295, 319 296.125, 319 297.500 C 319 299.258, 319.544 300, 320.833 300 C 323.467 300, 323.995 300.883, 322.972 303.574 C 322.141 305.759, 322.398 306.024, 326.286 306.993 C 328.604 307.571, 331.175 308.485, 332 309.024 C 337.951 312.914, 341.081 312, 345.437 305.101 C 347.467 301.884, 348.294 301.334, 350.471 301.750 C 354.261 302.474, 356.546 307.268, 354.944 311.135 C 353.496 314.630, 353.819 315.061, 358.340 315.670 C 361.558 316.104, 361.861 315.909, 362.499 313.003 C 362.886 311.241, 362.689 308.693, 362.049 307.184 C 360.943 304.579, 350.300 296, 348.174 296 C 347.593 296, 346.797 295.480, 346.405 294.845 C 345.979 294.156, 346.129 293.961, 346.776 294.362 C 347.373 294.731, 348.149 294.568, 348.500 294 C 348.851 293.432, 349.525 293.206, 349.997 293.498 C 351.144 294.207, 352.323 290.331, 351.410 288.854 C 350.963 288.130, 351.127 287.960, 351.845 288.405 C 352.480 288.797, 353 288.750, 353 288.300 C 353 286.411, 357.635 284.855, 364.824 284.330 C 372.698 283.755, 376.339 282.048, 375.326 279.406 C 374.651 277.649, 377.367 277.527, 378.781 279.250 C 379.346 279.938, 380.119 283.017, 380.499 286.094 C 381.104 290.979, 380.791 292.691, 378.035 299.594 C 376.299 303.942, 374.221 308.512, 373.417 309.750 C 372.612 310.987, 370.111 317.287, 367.859 323.750 C 365.606 330.212, 362.238 338.834, 360.373 342.909 C 358.509 346.983, 357.158 350.492, 357.372 350.706 C 358.479 351.813, 365.461 340.033, 368.429 332.049 C 372.572 320.905, 375.247 317.201, 401.500 286.250 C 408.605 277.874, 414 270.632, 414 269.472 C 414 267.834, 422.408 255.441, 425.608 252.360 C 427.949 250.108, 428.715 248.624, 428.319 247.110 C 427.730 244.859, 429.444 244.153, 430.407 246.250 C 430.723 246.938, 430.742 246.525, 430.450 245.334 C 430.158 244.143, 430.387 242.879, 430.959 242.525 C 431.561 242.153, 432 242.821, 432 244.108 C 432 248.234, 433.385 244.992, 436.651 233.216 C 440.213 220.375, 440.561 218, 438.878 218 C 438.067 218, 438.079 217.610, 438.919 216.597 C 439.813 215.520, 439.783 215.056, 438.792 214.599 C 438.081 214.271, 438.982 214.152, 440.794 214.335 C 444.091 214.667, 445.894 213.671, 444.055 212.534 C 443.423 212.143, 443.417 211.034, 444.038 209.399 C 444.674 207.728, 444.645 206.205, 443.954 204.914 C 443.378 203.839, 443.157 202.555, 443.462 202.061 C 444.347 200.629, 444.937 191, 444.139 191 C 442.804 191, 440.281 184.163, 441.119 182.814 C 441.568 182.092, 441.752 177.900, 441.529 173.500 C 440.602 155.246, 439.819 152.651, 431.379 139.866 C 428.971 136.217, 426.986 132.617, 426.968 131.866 C 426.928 130.129, 424 126.186, 424 127.868 C 424 128.555, 423.538 128.833, 422.973 128.484 C 422.409 128.135, 422.052 127.321, 422.181 126.675 C 422.632 124.410, 420.949 120, 419.634 120 C 417.943 120, 413.419 116.072, 413.750 114.891 C 413.980 114.071, 412.566 113.595, 410.750 113.882 C 410.338 113.947, 410.053 113.662, 410.118 113.250 C 410.430 111.275, 409.872 110.651, 409 112 C 408.165 113.292, 408.029 113.265, 408.015 111.807 C 408.007 110.875, 407.103 109.485, 406.006 108.717 C 404.910 107.949, 404.274 107.059, 404.593 106.740 C 404.912 106.421, 403.897 105.347, 402.337 104.353 C 398.897 102.162, 397.939 100.907, 398.730 99.628 C 399.075 99.070, 398.623 98.931, 397.664 99.299 C 396.749 99.650, 396 99.475, 396 98.910 C 396 98.344, 395.550 98.160, 395 98.500 C 394.450 98.840, 394 98.416, 394 97.559 C 394 96.702, 393.523 96, 392.941 96 C 392.359 96, 392.167 95.539, 392.515 94.975 C 392.864 94.412, 392.778 94.022, 392.324 94.109 C 390.850 94.393, 384.915 92.751, 385.457 92.210 C 386.378 91.289, 383.827 89, 381.878 89 C 380.845 89, 380 88.352, 380 87.559 C 380 86.766, 379.480 85.797, 378.845 85.405 C 378.072 84.926, 377.955 85.154, 378.492 86.095 C 379.140 87.232, 379.036 87.261, 377.947 86.250 C 376.197 84.626, 374 84.646, 374 86.287 C 374 86.995, 372.988 87.644, 371.750 87.729 C 369.679 87.872, 369.639 87.780, 371.250 86.582 C 373.347 85.021, 373.548 83, 371.607 83 C 370.841 83, 369.955 82.325, 369.638 81.500 C 369.322 80.675, 368.422 80, 367.638 80 C 366.855 80, 365.936 79.275, 365.595 78.388 C 365.156 77.242, 364.101 76.905, 361.944 77.221 C 357.840 77.824, 357.176 76.340, 361.159 75.465 C 363.879 74.868, 364.084 74.627, 362.584 73.787 C 361.350 73.097, 361.010 72.095, 361.435 70.403 C 361.818 68.878, 361.605 68, 360.852 68 C 360.200 68, 359.951 67.715, 360.299 67.367 C 361.914 65.753, 355.132 62.488, 349.321 62.082 C 348.673 62.037, 347.469 61.327, 346.646 60.503 C 345.823 59.680, 343.479 58.793, 341.436 58.531 C 337.272 57.998, 335.537 57, 338.774 57 C 342.635 57, 342.029 55.251, 337.796 54.176 C 335.500 53.593, 333.303 53.313, 332.915 53.552 C 332.527 53.792, 331.952 53.316, 331.636 52.494 C 331.321 51.672, 330.572 51, 329.972 51 C 329.373 51, 329.203 51.520, 329.595 52.155 C 330.028 52.854, 329.871 53.038, 329.198 52.622 C 328.587 52.245, 328.348 51.257, 328.666 50.427 C 328.985 49.597, 328.853 48.985, 328.373 49.067 C 326.417 49.401, 323 47.674, 323 46.351 C 323 44.890, 319.080 42.893, 317.750 43.676 C 317.337 43.919, 317 43.615, 317 43 C 317 42.385, 316.563 42.152, 316.029 42.482 C 315.495 42.812, 314.064 41.939, 312.849 40.541 C 311.634 39.143, 309.876 38, 308.942 38 C 308.009 38, 306.768 37.425, 306.185 36.723 C 305.603 36.021, 303.885 35.344, 302.369 35.218 C 299.288 34.963, 297.167 32.694, 299.526 32.177 C 301.034 31.846, 301.603 30.069, 300.250 29.914 C 299.837 29.867, 295.675 29.663, 291 29.462 C 286.325 29.261, 279.350 28.937, 275.500 28.741 C 271.650 28.545, 267.375 28.521, 266 28.687 M 275.500 32 C 275.160 32.550, 275.332 33, 275.882 33 C 276.432 33, 277.160 32.550, 277.500 32 C 277.840 31.450, 277.668 31, 277.118 31 C 276.568 31, 275.840 31.450, 275.500 32 M 289.500 34 C 289.840 34.550, 290.316 35, 290.559 35 C 290.802 35, 291 34.550, 291 34 C 291 33.450, 290.523 33, 289.941 33 C 289.359 33, 289.160 33.450, 289.500 34 M 258.500 37 C 258.160 37.550, 258.584 38, 259.441 38 C 260.298 38, 261 37.550, 261 37 C 261 36.450, 260.577 36, 260.059 36 C 259.541 36, 258.840 36.450, 258.500 37 M 262.500 37 C 262.840 37.550, 264.018 38, 265.118 38 C 266.218 38, 266.840 37.550, 266.500 37 C 266.160 36.450, 264.982 36, 263.882 36 C 262.782 36, 262.160 36.450, 262.500 37 M 332 51.059 C 332 51.641, 332.450 51.840, 333 51.500 C 333.550 51.160, 334 50.684, 334 50.441 C 334 50.198, 333.550 50, 333 50 C 332.450 50, 332 50.477, 332 51.059 M 325.500 52 C 325.840 52.550, 326.316 53, 326.559 53 C 326.802 53, 327 52.550, 327 52 C 327 51.450, 326.523 51, 325.941 51 C 325.359 51, 325.160 51.450, 325.500 52 M 356 71.965 C 356 72.495, 356.906 73.415, 358.014 74.008 C 359.562 74.836, 359.967 74.786, 359.764 73.793 C 359.304 71.540, 356 69.935, 356 71.965 M 360.460 90.065 C 359.964 90.868, 360.100 91.056, 360.845 90.595 C 361.548 90.161, 362 90.558, 362 91.608 C 362 92.557, 362.262 93.072, 362.582 92.752 C 362.901 92.432, 364.742 92.830, 366.672 93.636 C 368.602 94.443, 369.889 94.630, 369.532 94.051 C 369.174 93.473, 369.310 93, 369.834 93 C 371.534 93, 371.829 90.431, 370.136 90.369 C 369.236 90.336, 366.864 89.974, 364.865 89.564 C 362.350 89.050, 360.992 89.204, 360.460 90.065 M 376.824 115.338 C 375.257 116.530, 375.257 116.679, 376.824 117.658 C 378.214 118.526, 378.500 118.303, 378.500 116.352 C 378.500 115.059, 378.500 114.014, 378.500 114.032 C 378.500 114.049, 377.746 114.637, 376.824 115.338 M 223.756 189.664 C 224.447 189.943, 224.715 190.652, 224.352 191.240 C 223.961 191.872, 224.163 192.017, 224.845 191.595 C 226.590 190.517, 226.229 188.990, 224.250 189.079 C 223.194 189.127, 222.998 189.359, 223.756 189.664 M 227.500 190 C 227.160 190.550, 227.359 191, 227.941 191 C 228.523 191, 229 190.550, 229 190 C 229 189.450, 228.802 189, 228.559 189 C 228.316 189, 227.840 189.450, 227.500 190 M 127.750 191.392 C 125.819 192.858, 125.475 194, 126.965 194 C 127.495 194, 128.411 193.100, 129 192 C 130.247 189.669, 130.108 189.602, 127.750 191.392 M 271.500 202 C 271.160 202.550, 269.628 203, 268.096 203 C 264.945 203, 261.992 205.709, 262.015 208.579 C 262.026 209.955, 262.262 210.135, 262.845 209.216 C 263.296 208.505, 264.409 208.220, 265.338 208.576 C 267.754 209.503, 272.096 206.413, 271.298 204.334 C 270.918 203.344, 271.066 202.923, 271.663 203.292 C 272.215 203.633, 272.667 203.257, 272.667 202.456 C 272.667 200.746, 272.351 200.623, 271.500 202 M 276 203 C 276 203.615, 275.597 203.869, 275.105 203.565 C 274.612 203.260, 273.948 203.694, 273.627 204.529 C 273.138 205.803, 273.403 205.860, 275.273 204.888 C 278.262 203.333, 278.290 203.297, 277.067 202.541 C 276.480 202.179, 276 202.385, 276 203 M 333 202.393 C 333 202.609, 333.698 203.054, 334.552 203.382 C 335.442 203.723, 335.843 203.555, 335.493 202.989 C 334.906 202.038, 333 201.583, 333 202.393 M 249.500 204 C 249.160 204.550, 249.584 205, 250.441 205 C 251.298 205, 252 204.550, 252 204 C 252 203.450, 251.577 203, 251.059 203 C 250.541 203, 249.840 203.450, 249.500 204 M 247.481 206.997 C 247.674 209.609, 248.617 210.441, 249.317 208.616 C 249.627 207.808, 249.309 206.671, 248.609 206.090 C 247.649 205.294, 247.372 205.516, 247.481 206.997 M 257 209.031 C 257 209.564, 257.675 210, 258.500 210 C 259.325 210, 260 209.823, 260 209.607 C 260 209.391, 259.325 208.955, 258.500 208.638 C 257.675 208.322, 257 208.499, 257 209.031 M 129 219.941 C 129 220.459, 129.445 221.157, 129.989 221.493 C 130.555 221.843, 130.723 221.442, 130.382 220.552 C 129.717 218.820, 129 218.503, 129 219.941 M 139.750 229.572 C 138.613 230.727, 138.853 236.791, 140.067 237.541 C 141.899 238.674, 142.326 237.193, 141.396 232.926 C 140.903 230.662, 140.162 229.153, 139.750 229.572 M 248 232 C 246.718 232.828, 246.754 232.972, 248.250 232.985 C 249.213 232.993, 250 232.550, 250 232 C 250 230.780, 249.887 230.780, 248 232 M 259 242 C 259 242.550, 259.477 243, 260.059 243 C 260.641 243, 260.840 242.550, 260.500 242 C 260.160 241.450, 259.684 241, 259.441 241 C 259.198 241, 259 241.450, 259 242 M 114 246 C 114 246.550, 114.450 247, 115 247 C 115.550 247, 116 246.550, 116 246 C 116 245.450, 115.550 245, 115 245 C 114.450 245, 114 245.450, 114 246 M 114.579 249.750 C 113.909 251.856, 101.420 264.193, 98.259 265.871 C 96.486 266.812, 95.442 266.771, 93.259 265.672 C 91.742 264.908, 88.719 264.229, 86.541 264.164 C 83.819 264.082, 81.009 262.976, 77.541 260.622 C 69.127 254.908, 67.448 254.998, 60.208 261.550 C 56.794 264.640, 54 267.805, 54 268.584 C 54 269.363, 53.550 270, 53 270 C 52.450 270, 52 270.480, 52 271.067 C 52 271.653, 50.875 273.608, 49.500 275.411 C 48.125 277.214, 47 279.158, 47 279.732 C 47 282.470, 36.277 302.755, 32.649 306.882 C 31.866 307.772, 30.163 311.875, 28.863 316 C 26.466 323.607, 25.477 325.326, 21 329.666 C 17.797 332.771, 8.757 338, 6.593 338 C 5.678 338, 3.820 338.727, 2.465 339.615 L -0 341.230 -0 426.615 L 0 512 141.500 512 C 219.325 512, 283 511.806, 283 511.568 C 283 510.336, 276.257 493.119, 272.008 483.500 C 269.335 477.450, 266.828 471.150, 266.436 469.500 C 266.044 467.850, 265.460 466.050, 265.138 465.500 C 264.816 464.950, 264.528 464.050, 264.498 463.500 C 264.305 459.980, 262.588 456.221, 260.388 454.500 C 256.133 451.171, 248 442.980, 248 442.023 C 248 441.530, 246.425 441.381, 244.500 441.694 C 242.143 442.076, 241 441.873, 241 441.072 C 241 440.417, 240.550 440.160, 240 440.500 C 239.417 440.861, 239 439.844, 239 438.059 C 239 436.377, 238.550 435, 238 435 C 237.450 435, 237 434.523, 237 433.941 C 237 433.359, 237.450 433.160, 238 433.500 C 239.480 434.415, 239.213 432.750, 237.484 430.281 C 236.110 428.319, 236.133 428.025, 237.726 427.133 C 238.693 426.593, 239.171 425.838, 238.789 425.456 C 237.964 424.631, 240.380 422, 241.964 422 C 242.572 422, 244.292 421.218, 245.785 420.263 C 250.304 417.372, 252.728 415.199, 255.989 411.116 C 257.358 409.402, 259.120 408, 259.906 408 C 260.691 408, 261.047 407.713, 260.696 407.363 C 259.617 406.284, 264.118 400.831, 265.613 401.405 C 266.376 401.698, 267 401.475, 267 400.910 C 267 400.344, 267.399 400.129, 267.887 400.430 C 268.374 400.731, 269.297 400.347, 269.938 399.575 C 270.851 398.474, 270.651 397.753, 269.007 396.221 C 267.633 394.941, 267.068 393.449, 267.367 391.885 C 268.077 388.161, 269.123 386, 270.215 386 C 270.784 386, 270.946 384.920, 270.589 383.500 C 270.198 381.942, 270.386 381, 271.088 381 C 271.707 381, 271.966 380.354, 271.663 379.564 C 270.983 377.793, 277.200 370.794, 279.089 371.204 C 279.845 371.368, 280.601 370.534, 280.785 369.332 C 281.064 367.516, 280.689 367.210, 278.478 367.453 C 276.940 367.622, 275.619 367.170, 275.312 366.371 C 275.023 365.617, 274.159 365, 273.393 365 C 272.627 365, 272 364.358, 272 363.573 C 272 360.379, 264.928 356.229, 255.776 354.054 C 247.158 352.006, 244 350.402, 244 348.071 C 244 347.482, 243.534 347, 242.965 347 C 242.309 347, 242.379 347.824, 243.158 349.250 C 244.674 352.026, 244.832 355.256, 243.500 356.235 C 242.881 356.690, 242.976 356.975, 243.750 356.985 C 244.438 356.993, 245 357.675, 245 358.500 C 245 359.325, 244.590 360, 244.088 360 C 243.587 360, 243.328 360.788, 243.512 361.750 C 243.696 362.712, 243.881 364.078, 243.923 364.785 C 243.984 365.806, 244.463 365.824, 246.250 364.871 C 248.279 363.790, 248.367 363.834, 247.148 365.311 C 245.978 366.731, 246.195 367.348, 248.767 369.921 C 250.836 371.990, 251.649 373.689, 251.448 375.522 C 251.236 377.453, 251.537 378.008, 252.580 377.608 C 253.361 377.308, 254 377.639, 254 378.343 C 254 380.163, 247.916 384.480, 247.132 383.218 C 246.784 382.658, 244.886 381.944, 242.914 381.632 C 237.808 380.822, 236 379.983, 236 378.424 C 236 377.669, 235.378 377.302, 234.601 377.600 C 233.832 377.895, 232.905 377.656, 232.542 377.068 C 232.179 376.481, 231.234 376, 230.441 376 C 228.812 376, 224.367 371.899, 224.750 370.750 C 224.888 370.337, 224.663 370.049, 224.250 370.108 C 222.601 370.346, 219 368.703, 219 367.712 C 219 367.132, 218.249 365.828, 217.332 364.814 C 216.414 363.800, 215.552 361.965, 215.415 360.735 C 215.278 359.506, 215.129 358.163, 215.083 357.750 C 215.037 357.338, 214.662 357.074, 214.250 357.164 C 213.838 357.254, 212.375 357.024, 211 356.653 C 207.622 355.740, 195 355.270, 195 356.056 C 195 356.402, 193.425 357.533, 191.500 358.570 C 189.575 359.607, 188 360.833, 188 361.295 C 188 361.757, 187.121 361.856, 186.047 361.515 C 184.516 361.029, 184.173 361.305, 184.460 362.793 C 184.769 364.394, 184.263 364.667, 181.226 364.535 C 178.260 364.406, 177.466 363.899, 176.717 361.652 C 175.984 359.453, 175.392 359.055, 173.654 359.596 C 171.566 360.245, 171.554 360.205, 173.286 358.265 C 175.026 356.315, 175.006 356.276, 172.521 356.751 C 170.481 357.141, 170.095 356.915, 170.593 355.619 C 170.935 354.728, 170.716 354, 170.107 354 C 169.498 354, 169 354.955, 169 356.122 C 169 357.960, 168.784 358.066, 167.390 356.909 C 166.383 356.073, 166.196 355.435, 166.890 355.203 C 167.501 355, 168 354.144, 168 353.302 C 168 351.978, 167.639 352.007, 165.345 353.509 C 163.279 354.863, 162.814 354.928, 163.245 353.803 C 163.551 353.005, 162.965 351.834, 161.937 351.193 C 160.403 350.235, 160.175 350.294, 160.648 351.526 C 161.079 352.647, 160.755 352.850, 159.361 352.334 C 158.338 351.956, 157.169 351.163, 156.765 350.573 C 156.261 349.836, 156.026 349.869, 156.015 350.679 C 156.007 351.327, 156.678 352.536, 157.508 353.365 C 158.337 354.194, 158.602 355.128, 158.098 355.439 C 157.179 356.007, 156.237 355.840, 152.500 354.446 C 148.910 353.106, 147 352.992, 147.252 354.132 C 147.388 354.747, 146.938 355.456, 146.250 355.708 C 145.563 355.960, 145 355.653, 145 355.024 C 145 354.396, 144.550 354.160, 144 354.500 C 143.442 354.845, 143.007 354.097, 143.015 352.809 C 143.026 351.133, 143.266 350.872, 143.890 351.857 C 144.471 352.774, 144.966 352.864, 145.416 352.136 C 145.800 351.515, 145.006 350.789, 143.541 350.421 C 142.143 350.070, 141 349.355, 141 348.833 C 141 348.310, 141.508 348.196, 142.130 348.580 C 142.818 349.006, 143.071 348.736, 142.776 347.889 C 142.510 347.125, 141.664 346.606, 140.896 346.736 C 140.058 346.878, 139.407 345.979, 139.268 344.486 C 138.734 338.769, 138.519 338, 137.452 338 C 135.522 338, 135.209 338.992, 136.012 342.555 C 136.444 344.468, 136.392 346.258, 135.896 346.564 C 135.403 346.869, 135 347.568, 135 348.118 C 135 348.668, 135.450 348.840, 136 348.500 C 136.550 348.160, 137 348.359, 137 348.941 C 137 349.523, 136.287 350, 135.417 350 C 134.546 350, 134.019 350.558, 134.247 351.241 C 134.854 353.062, 132.873 354.551, 129.877 354.524 C 128.078 354.507, 127.419 354.072, 127.779 353.135 C 128.175 352.100, 127.720 351.951, 125.901 352.519 C 124.581 352.932, 123.169 353.771, 122.765 354.385 C 122.286 355.113, 122.025 354.969, 122.015 353.971 C 122.007 353.130, 121.100 351.793, 120 351 C 118.900 350.207, 118 348.956, 118 348.220 C 118 347.484, 117.576 347.144, 117.057 347.465 C 116.539 347.785, 115.240 346.070, 114.171 343.653 C 113.101 341.236, 111.718 338.944, 111.097 338.560 C 110.476 338.176, 110.226 337.443, 110.543 336.931 C 110.859 336.419, 110.593 336, 109.952 336 C 109.311 336, 109.031 335.362, 109.330 334.583 C 109.629 333.803, 109.297 332.944, 108.592 332.674 C 107.888 332.403, 106.735 330.124, 106.031 327.609 C 105.326 325.094, 104.353 323.282, 103.867 323.582 C 102.928 324.162, 100.004 321.701, 99.994 320.321 C 99.990 319.870, 98.640 318.733, 96.994 317.797 C 95.347 316.860, 94 315.262, 94 314.247 C 94 313.231, 93.572 311.972, 93.049 311.449 C 91.837 310.237, 94.741 303.625, 98.374 299.321 C 100.361 296.968, 101.681 296.256, 103.459 296.578 C 105.213 296.896, 106.033 296.473, 106.498 295.007 C 106.848 293.903, 107.614 293, 108.200 293 C 109.631 293, 113 289.032, 113 287.347 C 113 286.606, 113.563 285.983, 114.250 285.961 C 114.938 285.940, 116.618 283.577, 117.985 280.711 C 119.351 277.845, 121.629 273.475, 123.045 271 C 127.271 263.618, 127.282 263.318, 123.482 259.112 C 121.573 256.998, 119.327 253.634, 118.492 251.635 C 116.839 247.679, 115.450 247.010, 114.579 249.750 M 262.500 249 C 262.160 249.550, 262.332 250, 262.882 250 C 263.432 250, 264.160 249.550, 264.500 249 C 264.840 248.450, 264.668 248, 264.118 248 C 263.568 248, 262.840 248.450, 262.500 249 M 272.079 253.583 C 272.127 254.748, 272.364 254.985, 272.683 254.188 C 272.972 253.466, 272.936 252.603, 272.604 252.271 C 272.272 251.939, 272.036 252.529, 272.079 253.583 M 237.500 277 C 239.210 277.735, 239.246 277.870, 237.750 277.930 C 235.787 278.009, 235.418 279.522, 237.107 280.566 C 237.878 281.043, 237.803 281.510, 236.857 282.110 C 235.934 282.694, 235.884 282.974, 236.700 282.985 C 237.360 282.993, 238.407 282.212, 239.026 281.250 C 240.097 279.583, 240.125 279.583, 239.607 281.250 C 239.308 282.212, 239.490 283, 240.012 283 C 240.535 283, 241.255 284.168, 241.613 285.595 C 242.097 287.523, 242.487 287.845, 243.132 286.845 C 243.704 285.959, 244.256 285.853, 244.750 286.534 C 246.510 288.962, 251.449 292, 253.635 292 C 254.936 292, 256 292.384, 256 292.853 C 256 294.550, 266.443 292.878, 268.160 290.906 C 269.073 289.858, 270.263 289, 270.803 289 C 271.344 289, 272.025 288.376, 272.318 287.613 C 272.704 286.609, 272.250 286.373, 270.675 286.758 C 269.479 287.050, 267.938 287.729, 267.250 288.267 C 266.412 288.923, 266 288.875, 266 288.122 C 266 287.505, 265.403 287, 264.674 287 C 263.945 287, 262.310 285.895, 261.042 284.544 C 259.773 283.194, 258.457 282.122, 258.117 282.163 C 257.778 282.203, 257.050 282.149, 256.500 282.042 C 255.950 281.936, 253.363 281.832, 250.750 281.813 C 247.434 281.788, 246 281.367, 246 280.420 C 246 279.624, 245.379 279.301, 244.500 279.638 C 243.537 280.008, 243 279.618, 243 278.548 C 243 277.632, 242.581 277.141, 242.069 277.457 C 241.557 277.774, 240.856 277.575, 240.510 277.016 C 240.165 276.457, 238.896 276.032, 237.691 276.070 C 235.579 276.138, 235.572 276.171, 237.500 277 M 174.603 331.833 C 174.320 332.292, 174.743 332.667, 175.544 332.667 C 176.345 332.667, 177 332.292, 177 331.833 C 177 331.375, 176.577 331, 176.059 331 C 175.541 331, 174.886 331.375, 174.603 331.833 M 181.500 332 C 181.160 332.550, 181.610 333, 182.500 333 C 183.390 333, 183.840 332.550, 183.500 332 C 183.160 331.450, 182.710 331, 182.500 331 C 182.290 331, 181.840 331.450, 181.500 332 M 231 332.250 C 231 332.663, 229.888 333, 228.530 333 C 226.952 333, 225.269 334.070, 223.871 335.961 C 222.667 337.589, 221.304 338.688, 220.841 338.402 C 220.378 338.116, 220 338.584, 220 339.441 C 220 341.164, 221.547 341.541, 222.473 340.044 C 222.798 339.518, 223.725 339.341, 224.532 339.651 C 225.339 339.960, 226 339.716, 226 339.107 C 226 338.498, 227.012 337.986, 228.250 337.968 C 230.801 337.932, 233.396 336.219, 234.259 334 C 234.618 333.076, 234.872 332.980, 234.921 333.750 C 234.964 334.438, 235.787 334.964, 236.750 334.921 C 237.795 334.874, 237.997 334.639, 237.250 334.338 C 236.563 334.060, 236 333.308, 236 332.667 C 236 332.025, 234.875 331.500, 233.500 331.500 C 232.125 331.500, 231 331.837, 231 332.250 M 21.813 344.683 C 22.534 344.972, 23.397 344.936, 23.729 344.604 C 24.061 344.272, 23.471 344.036, 22.417 344.079 C 21.252 344.127, 21.015 344.364, 21.813 344.683 M 17.500 347 C 17.160 347.550, 17.359 348, 17.941 348 C 18.523 348, 19 347.550, 19 347 C 19 346.450, 18.802 346, 18.559 346 C 18.316 346, 17.840 346.450, 17.500 347 M 21.500 347 C 21.840 347.550, 22.316 348, 22.559 348 C 22.802 348, 23 347.550, 23 347 C 23 346.450, 22.523 346, 21.941 346 C 21.359 346, 21.160 346.450, 21.500 347 M 153 353 C 153 353.550, 153.450 354, 154 354 C 154.550 354, 155 353.550, 155 353 C 155 352.450, 154.550 352, 154 352 C 153.450 352, 153 352.450, 153 353 M 160.500 356 C 160.840 356.550, 161.316 357, 161.559 357 C 161.802 357, 162 356.550, 162 356 C 162 355.450, 161.523 355, 160.941 355 C 160.359 355, 160.160 355.450, 160.500 356 M 204.250 379.706 C 201.910 380.157, 201.225 381.575, 203.054 382.185 C 203.634 382.378, 204.221 383.303, 204.359 384.239 C 204.656 386.264, 206 387.843, 206 386.167 C 206 385.525, 206.450 385, 207 385 C 207.550 385, 208 385.900, 208 387 C 208 388.667, 208.667 389, 212 389 C 215.393 389, 216 388.682, 216 386.906 C 216 385.635, 215.193 384.602, 213.943 384.275 C 212.797 383.975, 212.105 383.168, 212.380 382.451 C 212.652 381.744, 212.123 380.878, 211.206 380.526 C 210.289 380.174, 209.380 380.361, 209.186 380.943 C 208.992 381.524, 208.435 382, 207.948 382 C 207.461 382, 207.322 381.325, 207.638 380.500 C 207.955 379.675, 207.828 379.061, 207.357 379.136 C 206.886 379.211, 205.488 379.467, 204.250 379.706 M 209 386.500 C 209 387.325, 209.450 388, 210 388 C 210.550 388, 211 387.325, 211 386.500 C 211 385.675, 210.550 385, 210 385 C 209.450 385, 209 385.675, 209 386.500 M 285.725 395.905 C 281.058 398.107, 278.740 400.981, 280.205 402.747 C 280.777 403.436, 280.865 404, 280.400 404 C 279.935 404, 280.535 404.687, 281.733 405.526 C 283.719 406.917, 284.315 406.862, 288.466 404.911 C 293.023 402.769, 294.581 400.276, 293.828 396.329 C 293.363 393.889, 290.333 393.731, 285.725 395.905 M 195.087 407.838 C 194.400 409.121, 194.035 410.369, 194.276 410.610 C 195.062 411.395, 197.201 408.104, 196.762 406.786 C 196.492 405.976, 195.877 406.362, 195.087 407.838" stroke="none" fill="black" fill-rule="evenodd"/>
</svg>